<?xml version="1.0" encoding="UTF-8" standalone="no"?>
<!DOCTYPE svg PUBLIC "-//W3C//DTD SVG 1.1//EN" "http://www.w3.org/Graphics/SVG/1.1/DTD/svg11.dtd">
<svg width="100%" height="100%" viewBox="0 0 903 1030" version="1.1" xmlns="http://www.w3.org/2000/svg" xmlns:xlink="http://www.w3.org/1999/xlink" xml:space="preserve" xmlns:serif="http://www.serif.com/" style="fill-rule:evenodd;clip-rule:evenodd;stroke-linecap:round;stroke-linejoin:round;stroke-miterlimit:1.5;">
    <g transform="matrix(1,0,0,1,-119.254,-18.8183)">
        <path d="M566.975,376.593L569.174,376.644L572.247,366.184L573.097,358.012L573.227,350.037L587.348,351.017L601.077,354.809L608.268,356.836L613.237,358.928L619.317,361.085L625.135,362.654L638.21,365.857L651.023,369.192L663.51,373.441L676.585,379.063L688.091,384.358L700.97,389.588L702.611,381.303L708.468,375.278L709.863,369.811L716.892,364.567L721.968,357.873L722.526,347.664L722.861,345.154L728.719,337.344L735.301,330.817L737.812,325.907L743.837,321.333L744.395,316.926L741.717,309.513L742.386,306.717L750.196,300.525L750.475,298.237L747.63,294.946L747.295,290.037L750.531,287.192L767.825,288.865L778.87,277.82L779.651,272.241L787.202,258.799L789.336,257.415L783.534,256.598L767.844,252.103L737.527,248.426L735.647,247.037L735.647,233.308L726.331,232.327L719.712,227.833L711.295,224.401L700.018,223.665L680.814,229.14L666.758,232.327L650.987,236.985L633.091,238.62L611.925,239.273L598.769,237.476L586.756,237.802L570.576,237.067L557.766,232.847L557.237,237.741L556.917,241.717L556.871,244.231L557.42,246.379L558.037,248.641L560.322,252.434L562.698,256.341L565.212,260.568L567.542,264.818L567.725,266.258L569.05,271.056L570.147,275.169L571.061,280.333L570.856,284.606L567.291,288.011L565.714,288.217L562.264,288.468L553.604,292.192L549.422,296.1L549.628,302.201L550.839,305.354L548.097,311.638L548.28,315.088L549.171,319.635L549.719,323.634L550.176,328.821L550.245,332.614L553.398,336.338L550.588,340.794L550.039,342.416L549.605,344.747L549.217,347.603L549.285,350.277L553.558,351.534L555.34,353.796L554.655,356.401L557.191,360.559L560.322,363.027L559.728,366.066L560.642,369.196L563.658,373.287L565.92,373.401L566.857,374.543L567.245,375.8L566.975,376.593Z" style="fill:none;stroke:black;stroke-width:3.61px;"/>
        <path d="M582.118,427.571L580.549,434.959L581.661,444.374L587.283,444.374L595.063,445.418L600.619,444.374L605.522,442.803L610.687,441.561L613.237,459.932L613.629,467.842L615.786,467.45L615.656,469.999L616.702,470.653L616.375,475.752L614.217,477.125L614.544,484.186L615.198,487.781L616.767,490.527L612.387,501.379L609.249,504.779L603.692,506.544L595.651,508.767L591.663,512.493L594.213,517.461L593.886,523.476L590.29,525.437L597.481,528.837L605.522,530.798L614.348,532.759L624.024,536.289L624.35,544.396L623.435,548.122L623.819,552.461L621.776,555.832L624.33,560.633L623.513,569.622L620.142,574.015L621.061,576.773L624.636,581.267L630.357,585.864L633.625,588.315L640.98,592.095L646.598,593.831L662.227,602.105L668.254,602.616L682.452,606.498L693.893,612.831L704.925,621.309L720.145,631.115L722.086,660.943L718.408,683.415L716.838,698.725L721.945,689.276L750.164,659.653L764.209,648.034L780.17,633.861L796.641,628.243L797.918,623.901L810.814,614.58L833.159,599.769L855.121,587.639L875.806,578.318L895.342,565.294L910.281,565.677L925.731,553.036L990.339,551.376L996.724,543.332L1002.47,542.055L1007.03,534.776L1016.7,535.712L1019.5,526.671L1019.19,517.943L1015.76,507.032L1007.97,498.304L997.371,490.511L981.161,476.171L979.602,468.066L979.602,459.961L972.744,459.337L968.38,460.584L953.417,461.208L949.988,459.026L922.243,458.09L889.512,452.168L840.882,444.374L840.871,444.374L833.353,443.13L815.964,440.515L802.17,438.946L787.983,435.939L770.986,431.298L756.8,427.114L741.633,421.884L733.265,418.942L720.124,413.319L705.35,407.37L702.212,406.978L702.996,401.356C702.996,401.356 703.258,397.63 703.258,396.976C703.258,396.322 702.8,392.334 702.8,392.334L700.97,389.588L688.091,384.358L676.585,379.063L663.51,373.441L651.023,369.192L638.21,365.857L625.135,362.654L619.317,361.085L613.237,358.928L608.268,356.836L601.077,354.809L587.348,351.017L573.227,350.037L573.097,358.012L572.247,366.184L569.174,376.644L566.363,376.579L566.428,378.867L569.37,385.535L571.201,391.419L574.404,397.107L574.469,402.533L579.503,409.07L582.38,414.104L582.903,420.968L582.118,427.571Z" style="fill:none;stroke:black;stroke-width:3.61px;"/>
        <path d="M557.766,232.847L557.237,237.741L556.917,241.717L556.871,244.231L557.42,246.379L558.037,248.641L560.322,252.434L562.698,256.341L565.212,260.568L567.542,264.818L567.725,266.258L569.05,271.056L570.147,275.169L571.061,280.333L570.856,284.606L567.291,288.011L565.714,288.217L562.264,288.468L553.604,292.192L549.422,296.1L549.628,302.201L550.839,305.354L548.097,311.638L548.28,315.088L549.171,319.635L549.719,323.634L550.176,328.821L550.245,332.614L553.398,336.338L550.588,340.794L550.039,342.416L549.605,344.747L549.217,347.603L549.285,350.277L553.558,351.534L555.34,353.796L554.655,356.401L557.191,360.559L560.322,363.027L559.728,366.066L560.642,369.196L563.658,373.287L565.92,373.401L566.857,374.543L567.245,375.8L566.975,376.593L566.363,376.579L566.428,378.867L569.37,385.535L571.201,391.419L574.404,397.107L574.469,402.533L579.503,409.07L582.38,414.104L582.903,420.968L582.118,427.571L564.161,428.203L553.035,427.571L528.803,423.147L528.977,427.571L522.876,427.571L519.127,424.716L506.837,423.147L492.019,419.922L482.779,416.697L482.662,416.651L476.635,410.216L476.635,400.205L477.146,391.216L476.84,379.878L476.431,373.238L475.92,364.249L475.41,356.384L475.41,352.911L467.033,330.847L467.442,323.901L465.603,319.406L465.093,309.089L465.501,294.789L467.34,285.697L468.974,279.262L475.614,279.364L475.614,275.687L477.453,276.3L477.35,263.531L479.291,263.02L479.087,253.521L484.092,253.01L485.829,234.93L482.969,234.623L482.254,228.494L484.296,228.596L483.786,218.075L486.339,217.871L486.033,207.35L490.119,207.043L490.221,205.613L496.146,205.715L495.941,203.264L514.634,203.774L515.3,207.096L514.593,211.059L513.114,216.093L509.941,225.381L524.16,229.876L546.224,230.284L552.026,232.491L556.684,232.491L557.766,232.847" style="fill:none;stroke:black;stroke-width:3.61px;"/>
        <path d="M716.838,698.725L718.408,683.415L722.086,660.943L720.145,631.115L704.925,621.309L693.893,612.831L682.452,606.498L668.254,602.616L662.227,602.105L646.598,593.831L640.98,592.095L633.625,588.315L630.357,585.864L624.636,581.267L621.061,576.773L620.142,574.015L623.513,569.622L624.33,560.633L621.776,555.832L623.819,552.461L623.435,548.122L624.35,544.396L624.024,536.289L614.348,532.759L605.522,530.798L597.481,528.837L590.29,525.437L593.886,523.476L594.213,517.461L591.663,512.493L595.651,508.767L603.692,506.544L609.249,504.779L612.387,501.379L616.767,490.527L615.198,487.781L614.544,484.186L614.217,477.125L616.375,475.752L616.702,470.653L615.656,469.999L615.786,467.45L613.629,467.842L613.237,459.932L610.687,441.561L605.522,442.803L600.619,444.374L595.063,445.418L587.283,444.374L581.661,444.374L580.549,434.959L582.118,427.571L564.161,428.203L553.035,427.571L528.803,423.147L528.977,427.571L522.876,427.571L519.127,424.716L506.837,423.147L492.019,419.922L482.779,416.697L482.169,424.89L479.554,435.35L475.719,445.548L470.14,456.096L464.387,465.422L457.588,472.57L449.743,480.502L439.196,486.516L423.681,483.117L410.868,483.727L400.495,481.199L382.103,481.199L369.464,478.497L351.769,474.575L340.725,473.442L328.845,477.364L324.312,479.107L313.416,479.282L309.075,476.705L308.908,474.529L306.119,474.418L305.84,475.478L294.348,475.031L293.957,476.538L285.924,476.259L285.868,475.031L280.959,474.976L280.457,474.195L271.308,473.972L267.626,476.036L253.847,476.259L247.264,474.474L237.056,482.284L234.322,487.249L234.936,494.724L237.781,501.362L232.314,511.181L228.576,520.553L227.795,524.737L236.051,526.41L248.938,528.14L251.169,529.144L251.002,533.83L241.686,536.117L228.967,542.756L220.71,547.721L214.072,551.179L207.824,551.57L196.109,557.316L190.418,560.496L178.034,560.998L168.829,558.32L161.075,556.423L158.286,565.795L153.767,574.833L149.918,582.029L151.184,582.633L156.741,585.248L163.605,584.376L170.905,589.606L235.735,589.497L249.899,592.439L288.579,590.26L310.588,586.991L339.789,587.972L369.207,589.606L412.681,591.568L461.237,593.401L484.603,594.539L512.932,597.917L526.334,599.442L527.859,623.74L530.147,634.962L533.198,644.442L533.307,648.255L522.084,656.972L517.29,665.361L515.547,673.315L514.457,686.172L510.317,698.725L504.869,708.073L503.997,720.227L506.721,730.518L515.983,737.818L528.478,736.963L531.338,729.2L528.478,722.254L529.023,714.899L537.603,710.95L550.542,714.491L557.896,714.763L564.161,720.227L561.846,722.663L560.893,726.476L555.309,729.745L559.667,739.687L558.714,745.952L555.173,752.49L540,767.471L531.202,786.947L523.303,791.578L518.808,797.843L519.761,822.495L520.987,829.441L525.482,833.254L543.323,831.075L547.682,831.211L553.674,836.932L557.76,852.594L560.893,871.526L557.488,879.97L552.993,885.962L538.42,894.815L526.707,900.399L514.177,908.162L506.006,911.704L500.83,912.385L488.3,924.506L474.408,937.581L469.641,940.85L462.423,940.85L456.702,945.48L449.893,949.294L443.9,956.376L439.678,955.559L439.633,955.755L434.27,968.013L428.78,970.95L429.801,974.78L441.293,972.993L446.145,974.652L446.017,982.186L454.189,975.291L457.254,965.842L462.617,954.734L475.002,945.54L486.621,940.561L504.88,939.667L521.99,939.411L540,945.668L552.762,950.903L566.297,960.224L591.451,963.416L611.753,970.567L625.16,978.483L654.4,992.784L673.552,1001.47L693.854,1016.15L710.326,1032.11L719.774,1045.77L726.286,1046.16L732.798,1039.64L733.82,1036.45L740.332,1014.49L751.696,994.571L768.806,970.95L786.171,946.051L784.639,931.495L782.085,919.365L777.999,902.127L774.041,878.506L770.465,857.437L766.507,838.029L760.889,820.92L755.654,802.916L747.482,779.55L747.737,769.59L748.248,756.694L747.737,744.436L747.354,728.092L727.052,711.11L719.391,704.471L716.838,698.725Z" style="fill:none;stroke:black;stroke-width:3.61px;"/>
        <path d="M439.633,955.755L432.866,956.01L423.417,968.268L423.417,974.78L428.908,977.845L430.951,980.781L432.994,987.293L428.142,991.762L415.373,996.231L404.137,998.53L398.774,988.826L402.604,980.654L407.712,975.036L404.009,967.885L394.177,957.798L384.601,958.564L384.09,948.988L391.496,945.796L391.624,939.411L384.729,936.858L385.495,932.261L396.986,930.218L395.199,919.492L379.493,900.723L370.683,897.275L356.638,886.422L340.677,879.655L323.823,871.611L305.564,864.588L296.753,863.183L271.855,862.928L260.619,864.332L259.214,866.248L253.085,866.886L246.829,874.547L244.53,860.119L236.486,851.564L230.357,851.181L229.591,834.582L225.377,830.879L218.738,833.433L214.524,829.602L212.354,821.686L212.354,804.448L216.439,808.789L225.122,804.193L223.718,799.085L217.078,792.701L197.159,792.701L177.112,774.57L166.898,770.995L136.381,741.755L135.104,723.368L138.168,715.452L135.742,706.897L131.401,696.937L123.995,684.552L122.591,668.463L121.059,655.056L121.447,646.713L131.622,646.114L138.605,639.93L142.595,631.75L142.794,600.228L149.378,585.663L150.968,582.64L156.741,585.248L163.605,584.376L170.905,589.606L235.735,589.497L249.899,592.439L288.579,590.26L310.588,586.991L339.789,587.972L369.207,589.606L412.681,591.568L461.237,593.401L484.603,594.539L512.932,597.917L526.334,599.442L527.859,623.74L530.147,634.962L533.198,644.442L533.307,648.255L522.084,656.972L517.29,665.361L515.547,673.315L514.457,686.172L510.317,698.725L504.869,708.073L503.997,720.227L506.721,730.518L515.983,737.818L528.478,736.963L531.338,729.2L528.478,722.254L529.023,714.899L537.603,710.95L550.542,714.491L557.896,714.763L564.161,720.227L561.846,722.663L560.893,726.476L555.309,729.745L559.667,739.687L558.714,745.952L555.173,752.49L540,767.471L531.202,786.947L523.303,791.578L518.808,797.843L519.761,822.495L520.987,829.441L525.482,833.254L543.323,831.075L547.682,831.211L553.674,836.932L557.76,852.594L560.893,871.526L557.488,879.97L552.993,885.962L538.42,894.815L526.707,900.399L514.177,908.162L506.006,911.704L500.83,912.385L488.3,924.506L474.408,937.581L469.641,940.85L462.423,940.85L456.702,945.48L449.893,949.294L443.9,956.376L439.684,955.757L439.633,955.755Z" style="fill:none;stroke:black;stroke-width:3.61px;"/>
        <path d="M840.882,444.374L842.44,413.201L894.811,418.812L904.787,363.948L911.174,313.89L913.932,285.697L950.705,284.982L953.259,267.413L962.248,256.687L964.393,248.107L965.619,237.586L968.172,228.596L966.538,222.263L966.844,213.274L964.495,213.172L964.597,211.231L958.06,211.64L958.264,209.188L952.952,209.393L952.85,206.737L940.695,206.941L940.286,209.597L928.13,209.086L927.722,210.925L912.604,211.027L911.787,208.984L895.647,209.903L895.545,207.554L884.513,207.656L884.717,205.307L859.895,206.226L859.385,204.387L837.218,204.49L836.81,202.344L832.417,202.038L824.858,208.882L824.858,212.661L824.858,212.647L824.217,212.94L816.602,215.492L810.092,218.027L807.641,221.54L807.477,226.525L808.376,229.631L813.851,234.125L814.097,240.009L814.587,244.748L811.972,247.772L808.703,251.286L800.286,250.959L789.336,257.415L787.202,258.799L779.651,272.241L778.87,277.82L767.825,288.865L750.531,287.192L747.295,290.037L747.63,294.946L750.475,298.237L750.196,300.525L742.386,306.717L741.717,309.513L744.395,316.926L743.837,321.333L737.812,325.907L735.301,330.817L728.719,337.344L722.861,345.154L722.526,347.664L721.968,357.873L716.892,364.567L709.863,369.811L708.468,375.278L702.611,381.303L700.97,389.588L702.8,392.334C702.8,392.334 703.258,396.322 703.258,396.976C703.258,397.63 702.996,401.356 702.996,401.356L702.212,406.978L705.35,407.37L720.124,413.319L733.265,418.942L741.633,421.884L756.8,427.114L770.986,431.298L787.983,435.939L802.17,438.946L815.964,440.515L833.353,443.13L840.871,444.374L840.882,444.374Z" style="fill:none;stroke:black;stroke-width:3.61px;"/>
        <path d="M824.858,212.647L824.217,212.94L816.602,215.492L810.092,218.027L807.641,221.54L807.477,226.525L808.376,229.631L813.851,234.125L814.097,240.009L814.587,244.748L811.972,247.772L808.703,251.286L800.286,250.959L789.336,257.415L783.534,256.598L767.844,252.103L737.527,248.426L735.647,247.037L735.647,233.308L726.331,232.327L719.712,227.833L711.295,224.401L700.018,223.665L680.814,229.14L666.758,232.327L650.987,236.985L633.091,238.62L611.925,239.273L598.769,237.476L586.756,237.802L570.576,237.067L556.684,232.491L552.026,232.491L546.224,230.284L524.16,229.876L509.941,225.381L513.114,216.093L514.593,211.059L515.3,207.096L514.634,203.774L514.839,200.71L513.307,201.016L513.204,194.377L511.264,193.253L511.468,188.35L502.479,175.684L493.898,165.367L488.791,158.114L482.969,148.819L478.883,140.34L475.41,128.491L473.877,122.26L472.141,117.664L473.98,114.191L473.673,108.266L482.356,96.927L493.286,86.508L504.318,78.03L513.204,69.858L513,67.1L514.532,66.487L515.145,60.563L503.807,52.595L496.554,50.144L491.753,49.429L485.216,49.735L478.78,49.735L475.512,51.472L466.727,50.961L466.318,53.208L458.453,52.697L450.996,58.213L445.174,58.418L445.174,59.746L415.959,59.95L410.137,57.907L408.911,51.063L417.185,46.875L425.357,30.327L436.491,30.838L444.969,32.574L453.856,25.832L474.184,20.623L485.931,20.623L492.673,22.257L503.398,27.569L521.07,36.251L531.387,27.262L550.897,31.042L561.623,30.838L572.348,32.472L581.235,33.698C581.235,33.698 586.24,36.149 587.466,36.66C588.692,37.171 606.874,43.606 606.874,43.606L626.385,51.472L637.621,54.842L660.4,62.299L682.157,70.471L682.566,84.874L680.523,93.965L680.115,107.244L685.733,112.25L690.738,112.352L690.636,117.561L704.222,122.158L714.13,129.717L724.243,136.867L725.877,142.894L729.146,150.555L742.221,157.706L762.446,169.248L762.65,175.377L768.268,182.017L777.768,190.189L786.962,196.726L793.295,198.361L794.827,205L800.547,212.457L806.268,212.866L817.504,214.602L820.16,212.661L824.858,212.647Z" style="fill:none;stroke:black;stroke-width:3.61px;"/>
    </g>
</svg>
