<?xml version="1.0" encoding="UTF-8" standalone="no"?>
<!DOCTYPE svg PUBLIC "-//W3C//DTD SVG 1.1//EN" "http://www.w3.org/Graphics/SVG/1.1/DTD/svg11.dtd">
<svg width="100%" height="100%" viewBox="0 0 1058 1016" version="1.1" xmlns="http://www.w3.org/2000/svg" xmlns:xlink="http://www.w3.org/1999/xlink" xml:space="preserve" xmlns:serif="http://www.serif.com/" style="fill-rule:evenodd;clip-rule:evenodd;stroke-linecap:round;stroke-linejoin:round;stroke-miterlimit:1.5;">
    <g transform="matrix(1,0,0,1,-13.4481,-33.019)">
        <path d="M546.788,228.244L544.047,237.174L544.138,244.82L545.504,253.012L548.143,259.02L547.961,271.58L548.143,272.53L559.817,283.691L555.39,292.429L564.361,299.303L568.614,301.983L574.323,306.235L578.575,309.265L585.1,314.158L589.643,313.517L593.372,316.372L590.459,323.013L613.877,335.129L615.974,332.217L622.79,336.935L627.275,337.576L630.421,338.1L633.625,338.741L635.897,339.265L637.819,341.77L638.174,341.723L660.396,350.079L667.685,327.501L673.374,323.057L680.84,325.546L704.307,337.101L722.085,346.168L725.996,344.745L735.773,334.257L739.235,334.008L745.861,326.217L746.735,317.187L748.628,312.527L751.468,310.779L753.653,309.177L756.638,304.517L758.604,300.148L763.847,295.925L768.435,291.701L768.726,288.643L774.551,284.857L778.775,284.638L785.692,279.978L783.799,277.648L788.387,274.225L794.94,273.715L795.478,269.303L797.976,266.656L800.213,265.389L802.524,262.257L804.836,259.013L807.445,258.827L810.614,257.932L813.001,254.614L815.424,250.811L817.661,248.798L821.128,246.076L824.148,243.094L827.876,240.111L832.947,234.034L836.339,230.418L839.956,226.764L843.274,223.409L848.531,219.345L852.893,216.176L857.106,212.522L857.516,209.465L858.783,206.184L860.424,201.487L861.505,198.057L862.773,194.105L863.257,192.352L870.304,193.918L873.734,195.445L878.841,196.938L882.271,198.243L885.962,199.511L889.616,197.684L893.158,191.159L898.601,181.205L898.862,174.942L909.562,169.088L903.858,160.14L910.569,154.063L904.193,150.223L917.727,138.107L919.628,138.815L923.953,132.701C923.953,132.701 930.627,134.863 930.426,134.701L933.564,129.537L937.683,132.413L938.99,128.883L943.305,132.675L962.525,107.44L976.45,115.481L983.838,106.459L993.644,111.624L1004.17,92.273L994.101,86.193L991.813,88.547L962.787,70.634L959.845,73.772L948.862,68.477L942.455,66.646L937.16,64.227L932.845,63.77L925,62.07L920.947,62.07L913.821,57.69L909.31,55.206L905.126,53.31L902.707,52.264L892.247,51.545L890.155,46.642L886.429,43.177L884.01,42.719L873.616,42.719L869.628,42.065L864.071,38.339L857.207,38.797L854.526,39.516L848.119,34.809L845.962,34.874L840.013,43.634L836.287,36.574L832.168,36.443L830.076,41.019L822.689,42.915L819.093,45.792L814.909,43.961L810.594,44.223L804.972,50.956L804.58,57.951L797.912,62.462L793.662,62.985L790.982,61.743L789.151,60.959L786.863,63.443L785.948,71.484L781.372,74.36L777.384,73.576L768.297,73.249L765.29,73.641L760.19,83.317L757.314,90.639L752.607,98.876L746.331,106.198L738.421,112.605L731.295,116.985L722.469,121.496L715.932,123.915L711.944,124.307L708.871,131.629L705.341,136.27L701.941,139.801L698.215,143.854L693.181,147.646L687.82,150.195L683.244,152.745L677.949,157.386L670.758,166.016L664.939,173.469L661.54,179.091L656.506,186.936L652.387,190.335L645.85,187.72L624.93,187.263L618.523,194.062L613.032,195.042L610.351,196.807L605.383,194.912L596.949,191.904L587.274,192.231L581.194,198.05L575.899,202.822L568.708,207.66L568.446,214.132L562.166,216.759L552.523,226.647L548.273,228.199L546.788,228.244" style="fill:none;stroke:black;stroke-width:3.58px;"/>
        <path d="M527.529,478.5L524.566,484.894L522.647,488.948L519.896,493.255L514.467,495.753L508.82,498.033L505.345,500.929L502.775,505.671L499.988,513.055L496.73,516.241L489.563,521.489L482.722,526.702L475.518,533.579L469.546,541.289L464.007,549.941L461.973,549.771L449.131,565.099L444.298,566.341L441.951,572.693L435.185,573.936L427.314,578.631L420.686,585.397L406.325,581.945L401.493,581.807L386.165,576.283L378.571,575.317L344.05,564.96L315.191,563.303L313.258,562.061L270.65,562.061L272.928,520.358L264.248,520.307L261.631,419.653L249.142,360.688L244.734,360.163L245.852,357.331L250.075,347.428L255.828,338.762L263.255,331.917L270.1,324.563L273.158,324.272L281.387,326.602L288.887,326.893L302.358,333.301L319.252,339.709L329.738,346.117L333.379,352.161L336,359.952L331.852,364.48L332.563,371.591L339.247,376.426L341.896,379.982L343.656,384.817L355.368,399.439L366.328,393.759L372.728,397.919L378.968,398.639L381.128,391.199L383.288,383.519L387.688,377.199L391.448,368.399L395.768,360.159L401.368,350.239L404.168,340.479L405.768,331.919L414.088,332.159L417.368,330.799L423.448,327.279L427.128,324.559L430.008,320.799L431.928,313.999L433.768,306.959L436.968,302.559L457.928,292.079L467.848,285.359L476.328,279.279L488.248,269.679L490.088,260.319L490.568,254.719L500.088,254.319L505.928,245.599L509.368,239.599L515.288,239.599L521.608,243.279L525.128,243.039L529.448,239.519L534.872,228.608L546.788,228.244L544.047,237.174L544.138,244.82L545.504,253.012L548.143,259.02L547.961,271.58L548.143,272.53L543.914,268.487L541.176,274.72L536.749,285.381L533.137,294.876L530.574,305.886L530.632,317.653L524.341,335.071L524.41,348.543L524.672,431.276L525.619,468.075L527.575,469.274L527.529,478.5Z" style="fill:none;stroke:black;stroke-width:3.58px;"/>
        <path d="M398.372,778.628L455.98,731.714L455.282,726.513L482.589,707.489L484.5,708.672L504.161,692.47L502.34,689.376L512.05,683.137L511.54,681.972L571.542,641.34L552.099,624.446L562.075,598.159L567.027,602.164L572.415,597.213L577.658,590.878L584.285,579.736L584.482,579.736L579.915,576.228L573.297,572.686L566.446,570.029L558.291,567.979L550.788,566.115L545.755,564.344L542.399,563.086L549.39,552.833L543.797,550.503L538.578,549.571L538.951,544.491L540,540L540,536.242L543.145,535.73L543.285,530.417L526.741,527.201L527.113,521.749L527.346,515.83L527.529,478.5L524.566,484.894L522.647,488.948L519.896,493.255L514.467,495.753L508.82,498.033L505.345,500.929L502.775,505.671L499.988,513.055L496.73,516.241L489.563,521.489L482.722,526.702L475.518,533.579L469.546,541.289L464.007,549.941L461.973,549.771L449.131,565.099L444.298,566.341L441.951,572.693L435.185,573.936L427.314,578.631L420.686,585.397L406.325,581.945L401.493,581.807L386.165,576.283L378.571,575.317L344.05,564.96L315.191,563.303L313.258,562.061L270.65,562.061L259.565,563.453L250.866,564.795L241.769,567.032L230.883,568.523L230.336,571.058L223.128,572.699L212.639,573.693L195.837,573.245L183.211,572.699L170.635,571.853L159.698,571.307L150.154,570.312L136.583,568.374L131.486,576.788L121.708,595.1L119.93,596.344L128.464,597.588L141.619,599.544L151.93,602.211C151.93,602.211 156.197,603.811 161.175,604.344C166.153,604.877 171.664,605.944 171.664,605.944L179.486,607.544L197.442,616.255L206.935,622.1L211.158,627.343L214.144,631.202L218.221,635.863L224.411,642.052L227.906,645.839L229.29,650.936L229.945,656.47L230.819,660.111L242.47,662.296L250.844,665.864L267.956,671.252L278.733,674.747L288.855,678.607L300.87,682.466L313.904,686.544L326.72,691.714L334.366,694.772L341.896,698.413L345.07,700.088L347.254,702.345L350.895,705.841L353.007,708.899L355.847,714.215L360.726,721.86L362.983,726.521L366.842,732.783L370.483,739.118L374.124,745.017L379.221,752.371L384.027,759.362L388.105,765.915L393.494,772.105L398.372,778.628Z" style="fill:none;stroke:black;stroke-width:3.58px;"/>
        <path d="M881.343,485.496L870.609,480.333L858.303,474.944L847.308,469.993L840.536,467.444L831.215,461.983L819.564,459.944L759.687,420.297L753.978,420.238L751.298,418.316L747.57,415.403L741.278,412.199L736.793,409.694L732.191,407.597L725.666,404.685L714.598,397.17L711.685,401.364L707.969,398.917L703.938,404.568L693.743,401.131L683.723,396.879L680.17,395.597L669.16,391.228L665.84,390.121L662.581,388.84L655.82,385.286L651.101,384.995L647.956,381.15L651.276,378.995L648.713,376.606L646.965,374.8L646.499,371.422L645.392,366.878L643.703,361.052L640.965,359.188L634.907,358.78L635.023,352.314L635.489,343.227L637.819,341.77L660.396,350.079L667.685,327.501L673.374,323.057L680.84,325.546L704.307,337.101L722.085,346.168L725.996,344.745L735.773,334.257L739.235,334.008L745.861,326.217L746.735,317.187L748.628,312.527L751.468,310.779L753.653,309.177L756.638,304.517L758.604,300.148L763.847,295.925L768.435,291.701L768.726,288.643L774.551,284.857L778.775,284.638L785.692,279.978L783.799,277.648L788.387,274.225L794.94,273.715L795.478,269.303L797.976,266.656L800.213,265.389L802.524,262.257L804.836,259.013L807.445,258.827L810.614,257.932L813.001,254.614L815.424,250.811L817.661,248.798L821.128,246.076L824.148,243.094L827.876,240.111L832.947,234.034L836.339,230.418L839.956,226.764L843.274,223.409L848.531,219.345L852.893,216.176L857.106,212.522L857.516,209.465L858.783,206.184L860.424,201.487L861.505,198.057L862.773,194.105L863.257,192.352L870.304,193.918L873.734,195.445L878.841,196.938L882.271,198.243L885.962,199.511L889.616,197.684L893.158,191.159L898.601,181.205L898.862,174.942L909.562,169.088L903.858,160.14L910.569,154.063L904.193,150.223L917.727,138.107L919.628,138.815L923.953,132.701C923.953,132.701 930.627,134.863 930.426,134.701L933.826,137.709L931.145,141.174L927.092,139.735L925.523,143.069L928.204,144.573L928.596,149.999L913.821,164.578L925.066,178.11L921.797,181.837L928.596,188.309L936.245,196.415L942.978,204.195L951.935,203.999L956.903,199.422L959.845,199.488L959.91,200.926L958.93,204.456L954.484,208.706L950.889,210.209L950.692,217.335L948.078,228.58L950.692,233.483L952.458,240.086L952.196,249.042L953.634,252.899L956.119,256.887L959.191,260.352L963.31,263.751L967.232,266.301L965.588,272.951L968.652,274.611L973.887,281.506L975.891,290.737L980.304,297.193L987.331,291.881L996.811,291.881L1000.9,288.94L1011.85,301.279L1016.83,298.092L1022.72,304.548L1034.65,292.862L1043.96,301.606L1055.97,292.29L1069.3,282.402L1068.81,301.524L1066.11,306.264L1059.57,311.576L1051.64,317.541L1037.83,324.487L1023.94,328.9L1012.66,332.659L1004.33,336.99L1000.73,342.874L1002.2,349.82L1005.72,357.747L999.508,360.688L993.787,365.101L985.207,375.97L969.027,396.481L951.702,417.565L949.005,414.786L936.339,415.276L924.49,426.799L923.019,427.207L918.361,428.842L911.824,431.538L902.099,431.947L891.149,454.746L889.269,461.774L889.106,465.533L881.588,486.208L881.343,488.496L881.343,485.496Z" style="fill:none;stroke:black;stroke-width:3.58px;"/>
        <path d="M527.525,479.363L527.575,469.274L525.619,468.075L524.672,431.276L524.41,348.543L524.341,335.071L530.632,317.653L530.574,305.886L533.137,294.876L536.749,285.381L541.176,274.72L543.914,268.487L559.817,283.691L555.39,292.429L564.361,299.303L568.614,301.983L574.323,306.235L578.575,309.265L585.1,314.158L589.643,313.517L593.372,316.372L590.459,323.013L613.877,335.129L615.974,332.217L622.79,336.935L627.275,337.576L630.421,338.1L633.625,338.741L635.897,339.265L637.819,341.77L635.489,343.227L635.023,352.314L634.907,358.78L640.965,359.188L643.703,361.052L645.392,366.878L646.499,371.422L646.965,374.8L648.713,376.606L651.276,378.995L647.956,381.15L651.101,384.995L655.82,385.286L662.581,388.84L665.84,390.121L669.16,391.228L680.17,395.597L683.723,396.879L693.743,401.131L703.938,404.568L707.969,398.917L711.685,401.364L714.598,397.17L725.666,404.685L732.191,407.597L736.793,409.694L741.278,412.199L747.57,415.403L751.298,418.316L753.978,420.238L759.687,420.297L819.564,459.944L831.215,461.983L840.536,467.444L847.308,469.993L858.303,474.944L870.609,480.333L881.343,485.496L908.882,500.859L902.671,516.304L902.099,520.145L900.465,526.274L898.585,535.263L898.503,544.17L894.009,559.778L893.682,564.436L881.833,564.355L880.934,570.32L873.743,590.423L871.7,599.82L867.287,613.631L862.302,629.321L853.231,622.865L846.204,622.783L833.21,616.654L826.836,617.145L825.365,619.76L822.832,627.278L821.77,633.57L820.299,638.392L817.684,647.544L816.049,655.307L813.271,666.339L809.022,681.212L809.022,687.504L787.938,687.995L770.642,688.437L758.875,687.214L748.681,686.806L740.292,686.282L734.874,685.466L727.767,684.942L719.728,685.641L713.087,686.689L704.116,689.835L695.203,692.631L684.776,695.835L676.154,698.864L669.63,701.02L662.348,702.709L659.202,703.292L654.95,704.573L652.877,702.888L652.653,698.526L653.809,693.567L655.151,686.483L653.659,680.183L650.938,674.665L650.751,662.846L649.447,659.267L647.284,654.234L645.597,647.967L647.927,643.597L643.413,639.811L645.087,633.039L645.16,622.772L642.976,618.839L639.553,617.747L639.99,614.47L636.204,612.941L632.49,612.213L626.776,610.611L615.451,604.422L613.849,606.242L605.62,600.344L608.387,596.557L584.285,579.736L584.482,579.736L579.915,576.228L573.297,572.686L566.446,570.029L558.291,567.979L550.788,566.115L545.755,564.344L542.399,563.086L549.39,552.833L543.797,550.503L538.578,549.571L538.951,544.491L540,540L540,536.242L543.145,535.73L543.285,530.417L526.741,527.201L527.113,521.749L527.346,515.83L527.525,479.363" style="fill:none;stroke:black;stroke-width:3.58px;"/>
        <path d="M654.817,704.55L652.877,702.888L652.653,698.526L653.809,693.567L655.151,686.483L653.659,680.183L650.938,674.665L650.751,662.846L649.447,659.267L647.284,654.234L645.597,647.967L647.927,643.597L643.413,639.811L645.087,633.039L645.16,622.772L642.976,618.839L639.553,617.747L639.99,614.47L636.204,612.941L632.49,612.213L626.776,610.611L615.451,604.422L613.849,606.242L605.62,600.344L608.387,596.557L584.285,579.736L577.658,590.878L572.415,597.213L567.027,602.164L562.075,598.159L552.099,624.446L571.542,641.34L511.54,681.972L512.05,683.137L502.34,689.376L504.161,692.47L484.5,708.672L482.589,707.489L455.282,726.513L455.98,731.714L398.227,775.95L404.416,783.159L408.348,790.076L411.334,795.101L412.863,797.431L411.48,806.387L407.183,812.213L400.484,819.276L396.916,827.723L391.164,841.194L387.377,850.005L382.935,861.729L379.658,871.414L376.673,883.356L374.707,895.079L370.993,909.06L366.333,920.493L360.289,934.183C360.289,934.183 354.9,944.668 354.463,945.396C354.026,946.125 349.366,951.659 349.366,951.659L344.633,959.523L352.497,964.766L357.74,968.407L361.818,970.664L371.94,977.946L389.343,989.087L402.232,997.607L409.732,1002.41L421.529,1010.2L428.592,1010.64L442.209,1018.87L451.675,1024.55L460.632,1029.94L475.05,1037.58L485.026,1042.39L493.254,1045.38L498.324,1046.58L515.469,1007.62L515.781,994.836L519.522,988.913L526.38,987.355L535.732,988.602L546.019,992.966L551.942,990.472L566.593,979.873L575.321,968.339L583.427,957.117L586.544,951.506L588.414,941.842L604.624,919.397L605.361,917.781L606.178,901.948L615.167,883.153L615.984,874.164L620.07,863.949L623.952,854.96L626.776,850.794L626.611,851.037L628.211,841.645L628.328,833.606L626.114,827.839L624.425,822.654L623.609,818.926L623.959,814.615L626.463,807.916L628.735,799.353L630.891,792.712L633.221,785.488L636.134,777.1L637.124,772.731L638.464,768.42L640.037,763.643L641.901,760.09L643.59,755.662L644.464,743.837L646.561,740.4L649.183,737.778L652.561,734.691L656.989,730.496L659.086,727.409L661.299,723.389L662.581,719.312L662.406,712.904L654.95,704.573L654.817,704.55Z" style="fill:none;stroke:black;stroke-width:3.58px;"/>
        <g transform="matrix(1,0,0,1,0,3)">
            <path d="M131.486,573.788L136.583,565.374L150.154,567.312L159.698,568.307L170.635,568.853L183.211,569.699L195.837,570.245L212.639,570.693L223.128,569.699L230.336,568.058L230.883,565.523L241.769,564.032L250.866,561.795L259.565,560.453L270.65,559.061L272.928,517.358L264.248,517.307L261.631,416.653L249.142,357.688L244.734,357.163L243.667,359.865L230.851,356.88L215.123,357.753L201.506,358.117L187.452,359.282L163.932,357.826L149.951,354.841L127.96,355.059L118.056,357.681L113.833,359.137L108.008,363.797L100.289,371.152L93.007,379.089L87.182,385.715L80.482,393.288L73.856,399.842L67.157,399.769L67.157,403.92L63.443,409.891L59.22,414.406L57.836,420.741L54.195,426.42L50.117,427.44L31.549,427.731L24.122,442.003L21.063,447.028L21.063,451.907L15.238,461.81L17.495,466.397L21.864,470.621L27.18,474.189L33.369,478.922L40.651,483.728L47.787,488.898L56.161,496.18L62.351,501.568L66.938,506.083L72.181,511.69L76.405,516.423L79.827,519.846L81.939,523.341L83.759,526.326L86.454,530.113L89.002,534.7L92.497,540L96.939,544.312L100.435,548.973L107.134,556.546L127.219,568.633L131.486,573.788Z" style="fill:none;stroke:black;stroke-width:3.58px;"/>
        </g>
        <path d="M788.013,688.817L785.148,688.728L770.642,688.437L758.875,687.214L748.681,686.806L740.292,686.282L734.874,685.466L727.767,684.942L719.728,685.641L713.087,686.689L704.116,689.835L695.203,692.631L684.776,695.835L676.154,698.864L669.63,701.02L662.348,702.709L659.202,703.292L654.95,704.573L662.406,712.904L662.581,719.312L661.299,723.389L659.086,727.409L656.989,730.496L652.561,734.691L649.183,737.778L646.561,740.4L644.464,743.837L643.59,755.662L641.901,760.09L640.037,763.643L638.464,768.42L637.124,772.731L636.134,777.1L633.221,785.488L630.891,792.712L628.735,799.353L626.463,807.916L623.959,814.615L623.609,818.926L624.425,822.654L626.114,827.839L628.328,833.606L628.211,841.645L626.611,851.037L630.183,845.767L637.742,840.966L646.118,840.557L654.392,840.659L650.102,856.492L657.354,856.697L673.29,852.304L693.821,844.03L693.821,829.729L704.347,826.354L716.586,822.588L725.947,819.555L736.983,816.312L746.397,813.802L754.869,812.076L759.419,810.141L751.819,794.474L751.982,793.33L768.408,793.248L773.801,790.96L778.459,785.24L781.319,780.173L782.708,775.433L783.771,769.305L785.078,761.378L785.732,756.311L786.059,746.75L786.467,737.925L787.448,728.282L789.328,716.351L789.328,707.771L788.51,694.287L788.013,688.817Z" style="fill:none;stroke:black;stroke-width:3.58px;"/>
    </g>
</svg>
