<?xml version="1.0" encoding="UTF-8" standalone="no"?>
<!DOCTYPE svg PUBLIC "-//W3C//DTD SVG 1.1//EN" "http://www.w3.org/Graphics/SVG/1.1/DTD/svg11.dtd">
<svg width="100%" height="100%" viewBox="0 0 939 1031" version="1.1" xmlns="http://www.w3.org/2000/svg" xmlns:xlink="http://www.w3.org/1999/xlink" xml:space="preserve" xmlns:serif="http://www.serif.com/" style="fill-rule:evenodd;clip-rule:evenodd;stroke-linecap:round;stroke-linejoin:round;stroke-miterlimit:1.5;">
    <g transform="matrix(1,0,0,1,-70.6672,-24.5763)">
        <g transform="matrix(2.80387,0,0,2.80387,-1449.91,-875.332)">
            <path d="M803.821,374.599L801.567,373.611L793.294,381.977L792.832,387.107L794.218,391.128L795.42,396.12L792.185,396.674L789.55,395.704L789.55,397.83L792.046,406.103L794.542,408.552L796.391,411.926L798.424,414.33L800.689,417.75L802.168,420.708L801.983,424.96L797.176,430.182L792.601,434.481L788.21,438.04L785.576,440.397L784.651,443.586L783.496,446.081L784.282,449.132L784.975,450.195L786.731,451.997L788.071,453.245L789.174,454.123L789.597,456.388L789.174,458.166L793.195,458.138L797.161,456.669L801.431,453.285L804.759,450.069L806.95,446.963L810.194,443.219L813.094,437.415L822.425,428.708L825.398,422.429L834.291,429.421L835.765,429.285L843.756,432.464L845.224,432.464C844.849,430.324 843.874,429.932 852.579,416.457L853.665,412.913L835.509,385.804L803.821,374.599" style="fill:none;stroke:black;stroke-width:1.34px;"/>
        </g>
        <g transform="matrix(2.80387,0,0,2.80387,-1449.91,-875.332)">
            <path d="M654.576,558.394L650.598,561.31L647.94,559.775L650.479,557.905L651.908,556.333L649.891,554.229L647.316,553.994L645.349,553.067L644.836,550.164C644.836,550.164 645.985,548.534 644.875,548.832C643.765,549.129 641.208,549.946 641.208,549.946L639.689,551.676L637.295,551.127L636.676,549.31L636.023,547.37L634.138,545.76L631.891,544.776L630.444,545.296L630.191,546.818L628.729,548.267L626.59,548.179L624.337,548.651L622.291,550.389L619.219,553.723L614.74,556.246L612.516,560.278L609.754,561.812L606.629,561.988L603.387,568.144L601.103,570.475L597.113,576.303L595.481,580.573L592.649,585.298L590.509,590.63L586.682,595.093L581.645,599.482L576.85,599.842L568.122,598.347L564.193,600.457L563.084,608.157L562.877,614.293L562.732,616.712L557.838,616.701L556.129,618.216L553.629,618.754L550.973,619.201L548.359,620.298L546.124,621.823L545.385,626.271L543.667,629.016L543.464,631.101C543.464,631.101 542.788,633.312 543.042,634.26C543.295,635.207 543.14,641.255 543.14,641.255L543.656,646.024L545.115,651.47L544.139,653.508L544.242,686.729L544.48,687.934L547.488,685.267L551.354,682.962L556.468,680.577L560.544,677.793L565.867,674.928L568.411,671.793L569.604,669.612L564.313,673.229L559.73,675.388L555.922,677.593L553.544,678.822L550.523,679.547L547.428,679.361L547.063,677.682L547.203,676.857C547.203,676.857 567.837,665.109 569.88,665.518C571.874,665.917 585.067,663.2 595.863,658.793C596.124,658.686 596.384,658.578 596.642,658.47L598.616,658.042C598.616,658.042 614.811,654.249 616.446,654.74L615.792,641.501L609.99,641.256L611.396,587.371L622.378,587.175L628.851,588.286L630.681,582.207L630.42,574.623L632.865,571.028L655.393,585.018L660.623,577.042L660.23,575.996C660.23,575.996 664.998,568.766 666.24,567.916C667.482,567.066 665.973,567.199 665.973,567.199L665.618,566.884L665.46,567.105L664.61,566.909L665.199,566.19L665.068,565.536L664.349,565.536L663.826,566.124L663.172,566.582L662.518,566.386L661.995,567.105L661.472,567.432L661.015,567.04L660.361,566.124L660.165,565.275L660.23,564.163L660.361,563.313L660.819,562.267L661.472,561.875L661.603,561.025L661.407,560.175L660.688,559.652L659.773,559.26L658.269,558.868L657.485,559.064L656.766,559.848L655.131,560.175L654.576,560.045L654.576,558.493" style="fill:none;stroke:black;stroke-width:1.34px;"/>
        </g>
        <g transform="matrix(2.80387,0,0,2.80387,-1449.91,-875.332)">
            <path d="M705.768,655.879L706.159,653.746L706.327,652.364L706.695,652.264L706.628,650.457L706.829,649.151L706.829,646.373L706.896,644.8L707.498,643.461L707.431,641.821L707.398,640.348L707.264,639.679C707.264,639.679 707.063,639.478 706.829,639.277C706.594,639.076 706.092,638.976 705.724,638.808C705.356,638.641 704.753,638.139 704.753,638.139L704.72,637.67L704.318,636.867L703.348,635.997L702.678,635.93L695.816,639.277L692.168,639.31L689.457,637.704L688.218,635.562L688.453,632.449L689.992,630.675L691.8,628.867L692.268,627.495L693.942,627.562L695.716,627.495C695.716,627.495 697.088,627.528 698.126,627.495C699.164,627.462 699.398,627.395 699.398,627.395L700.603,626.022L701.406,625.252L702.042,623.88L702.243,622.474L702.009,620.734L701.205,618.223L700.402,617.788L698.327,617.387L697.222,616.818L696.452,616.182L696.586,614.642L697.39,612.734L698.963,611.548L703.85,614.307C703.85,614.307 705.289,614.24 706.025,614.14C706.762,614.039 706.962,614.14 706.962,614.14L708.368,614.14L709.339,615.546L710.109,615.445L711.615,615.981L712.686,616.416L713.054,615.613L712.753,614.776C712.753,614.776 712.284,614.207 712.117,613.872C711.95,613.537 711.682,613.37 711.314,612.868C710.946,612.366 711.079,612.198 711.013,611.864C710.946,611.529 710.611,610.469 710.611,610.469L710.075,609.253L709.573,608.416L708.469,608.115L707.398,607.814L706.762,607.379L706.025,606.542L705.958,605.638L705.891,604.801L707.498,602.727L708.134,600.617L707.699,598.776L706.126,597.17L704.854,595.998L702.544,594.76L700.066,594.286L699.281,593.92L698.81,593.397L698.392,592.978L697.869,592.56L697.764,591.932L697.921,590.782L698.601,590.154L698.915,589.265L700.222,588.638L701.986,587.677L702.488,586.673L703.024,585.502L702.689,584.263L702.153,583.36L701.517,582.724L701.35,581.418L701.551,579.979L701.283,578.774L700.681,578.64L700.446,579.443L699.543,580.448L697.467,582.523L696.865,582.891L695.626,583.125L694.99,583.962L694.388,584.933L693.852,586.272L693.116,587.711L693.283,589.351L691.108,589.552L689.166,588.916L689.133,586.171L689.97,584.631L690.037,582.523L690.74,581.05L688.095,578.372L684.614,578.406L682.941,580.146L682.07,580.749L680.698,581.452L680.43,580.381L680.865,578.975L681.301,578.205L682.472,575.962L683.142,573.954L682.472,573.318L681.2,572.649L680.062,572.615L678.991,570.841L680.062,570.138L681.635,568.666L681.301,567.594L680.966,566.791L678.522,566.523L678.121,566.222L677.284,565.887L676.748,565.452L676.581,564.549L676.849,562.574L676.983,561.77L677.251,560.498L676.815,559.862L674.941,559.862L674.138,559.461L673.1,559.494L672.966,560.298L672.263,560.967L671.426,562.306L670.288,563.176L669.016,564.113L668.548,563.779L667.845,563.076L666.004,562.875L665.518,562.461L664.435,562.653L664.407,563.215L664.764,564.161L665.449,565.45L665.973,565.943L665.973,567.199C665.973,567.199 666.051,567.193 666.156,567.194C666.507,567.198 667.164,567.283 666.207,567.938C664.965,568.788 660.23,575.996 660.23,575.996L660.623,577.042L655.393,585.018L632.865,571.028L630.42,574.623L630.681,582.207L628.851,588.286L622.378,587.175L611.396,587.371L609.99,641.256L615.792,641.501L616.818,653.517C637.096,649.965 667.038,647.374 688.682,651.805C694.953,653.088 700.651,654.477 705.756,655.879" style="fill:none;stroke:black;stroke-width:1.34px;"/>
        </g>
        <g transform="matrix(2.80387,0,0,2.80387,-1449.91,-875.332)">
            <path d="M760.544,602.124L760.651,601.956L760.784,600.751L761.588,600.269L762.953,599.439L763.917,598.555L766.274,597.832L767.077,597.484L766.836,597.029L766.086,596.547L765.685,596.091L765.31,595.315L764.694,595.127C764.694,595.127 764.212,594.886 763.783,594.779C763.355,594.672 763.409,594.592 763.409,594.592L762.364,594.351L761.882,594.003L758.83,594.11L758.535,593.146L757.866,592.369L757.866,589.906L757.384,589.424L756.741,588.594L755.991,588.085L755.268,587.549L754.411,587.201L753.421,586.425L752.858,585.862L752.001,585.862L751.841,585.648L750.904,585.273L749.592,584.47C749.592,584.47 748.788,584.176 748.574,584.068C748.36,583.961 747.637,583.827 747.637,583.827L746.512,583.613L745.843,583.104L744.665,582.14L741.371,577.803L739.416,579.811L739.229,580.909L738.961,581.096L738.104,581.23L737.328,581.498C737.328,581.498 736.792,581.658 736.283,581.819C735.775,581.98 735.266,581.98 735.266,581.98L733.847,582.596L732.267,583.265L732.454,584.47L731.088,584.39L730.794,584.899L729.08,584.845L728.384,584.952L727.447,585.568L727.152,585.032L726.108,583.72L725.198,583.801L724.957,584.524L724.314,584.604L723.859,584.176L721.957,584.122L721.77,584.497L721.556,585.193L721.154,585.996L720.297,587.228L719.601,588.219L719.199,589.317L718.932,590.548L718.45,592.262L718.503,594.404L716.656,594.351L716.682,595.529L715.397,596.386L713.282,596.493L712.237,597.457L711.488,600.162L707.498,602.727L708.134,600.617L707.699,598.776L706.126,597.17L704.854,595.998L702.544,594.76L700.066,594.286L699.281,593.92L698.81,593.397L698.392,592.978L697.869,592.56L697.764,591.932L697.921,590.782L698.601,590.154L698.915,589.265L700.222,588.638L701.986,587.677L702.488,586.673L703.024,585.502L702.689,584.263L702.153,583.36L701.517,582.724L701.35,581.418L701.551,579.979L701.283,578.774L700.681,578.64L700.446,579.443L699.543,580.448L697.467,582.523L696.865,582.891L695.626,583.125L694.99,583.962L694.388,584.933L693.852,586.272L693.116,587.711L693.283,589.351L691.108,589.552L689.166,588.916L689.133,586.171L689.97,584.631L690.037,582.523L690.74,581.05L688.095,578.372L684.614,578.406L682.941,580.146L682.07,580.749L680.698,581.452L680.43,580.381L680.865,578.975L681.301,578.205L682.472,575.962L683.142,573.954L682.472,573.318L681.2,572.649L680.062,572.615L678.991,570.841L680.062,570.138L681.635,568.666L681.301,567.594L680.966,566.791L678.522,566.523L678.121,566.222L677.284,565.887L676.748,565.452L676.581,564.549L676.849,562.574L676.983,561.77L677.251,560.498L676.815,559.862L674.941,559.862L674.138,559.461L673.1,559.494L672.966,560.298L672.263,560.967L671.426,562.306L670.288,563.176L669.016,564.113L668.548,563.779L667.845,563.076L666.004,562.875L665.518,562.461L664.435,562.653L664.407,563.215L664.764,564.161L665.449,565.45L665.973,565.943L665.973,567.199L665.618,566.884L665.46,567.105L664.61,566.909L665.199,566.19L665.068,565.536L664.349,565.536L663.826,566.124L663.172,566.582L662.518,566.386L661.995,567.105L661.472,567.432L661.015,567.04L660.361,566.124L660.165,565.275L660.23,564.163L660.361,563.313L660.819,562.267L661.472,561.875L661.603,561.025L661.407,560.175L660.688,559.652L659.773,559.26L658.269,558.868L657.485,559.064L656.766,559.848L655.131,560.175L654.576,560.045L654.576,558.394L656.355,553.687C656.355,553.687 655.297,549.74 655.09,548.474C654.883,547.208 654.114,543.845 654.114,543.845L653.572,537.38L661.973,526.801L661.213,519.524C656.804,507.544 654.877,499.959 654.088,495.245L672.09,497.67L679.105,500.508L684.47,501.849L695.354,504.84L702.885,506.697L706.341,507.368L711.86,508.812L713.098,506.594L720.165,508.193L723.982,508.348L730.223,510.927L730.688,505.408L735.536,505.769L736.155,503.964L741.571,504.789L742.139,507.677L750.959,510.772L757.82,512.01L764.99,513.919L773.14,514.899L778.298,516.24L779.606,516.954L779.191,518.12L781.659,520.145L783.295,521.171L784.293,521.947L785.874,523.167L786.678,524.138L788.904,524.152L784.887,529.508L780.246,536.247L779.398,539.638L779.13,545.038L779.398,548.252L780.335,553.964L782.165,562.934L787.253,569.673L787.208,572.574L782.53,588.195L778.96,598.192L776.55,600.512L770.614,601.628L766.999,602.253L764.366,602.699L762.759,602.654L761.108,602.297L760.528,602.119" style="fill:none;stroke:black;stroke-width:1.34px;"/>
        </g>
        <g transform="matrix(2.80387,0,0,2.80387,-1449.91,-875.332)">
            <path d="M784.036,444.914L783.496,446.081L784.282,449.132L784.975,450.195L786.731,451.997L788.071,453.245L789.174,454.123L789.597,456.388L789.174,458.166L789.257,458.915L788.904,459.053L788.904,460.024L787.427,461.577L786.068,464.932L785.098,468.316L785.014,471.255L784.46,473.612L783.877,476.108L783.129,478.16L781.909,480.046L780.494,481.931L780.605,485.453L782.241,488.254L783.351,489.613L784.155,491.083L786.096,494.688L786.512,496.13L786.761,497.461L785.514,500.955L783.85,505.336L782.546,508.997L781.437,511.77L780.522,514.377L779.606,516.954L778.298,516.24L773.14,514.899L764.99,513.919L757.82,512.01L750.959,510.772L742.139,507.677L741.571,504.789L736.155,503.964L735.536,505.769L730.688,505.408L731.369,497.713L732.097,492.838L732.382,485.304L732.952,479.954L733.616,475.649L733.743,474.826L733.711,465.424L733.363,455.421L733.648,452.16L735.297,443.493L735.364,443.127L736.031,440.123L736.298,437.485L736.732,434.647L737.133,431.909L738.091,428.949L745.542,431.348L747.834,431.791L752.197,432.901L758.261,434.749L763.622,436.302L771.091,439.186L775.01,440.554L777.894,441.59L780.039,442.551L783.145,444.03L784.025,444.939" style="fill:none;stroke:black;stroke-width:1.34px;"/>
        </g>
        <g transform="matrix(2.80387,0,0,2.80387,-1449.91,-875.332)">
            <path d="M735.297,443.493L733.648,452.16L733.363,455.421L733.711,465.424L733.743,474.826L733.616,475.649L732.952,479.954L732.382,485.304L732.097,492.838L731.369,497.713L730.688,505.408L730.223,510.927L723.982,508.348L720.165,508.193L713.098,506.594L711.86,508.812L706.341,507.368L702.885,506.697L695.354,504.84L684.325,501.809L684.324,501.812L685.908,498.581L686.891,496.252L687.276,494.649L690.566,486.615L691.913,485.439L692.319,484.414L692.981,483.58L697.917,480.802L701.55,475.503L702.896,472.426L704.05,468.43L705.588,463.537L705.823,460.225L707.939,456.272L707.896,454.798L708.9,454.776L710.225,453.857L713.9,453.879L713.9,450.545L715.909,447.447L717.768,445.203L719.563,443.216L721.4,440.887L723.601,438.43L724.456,438.216L725.824,438.665L729.435,440.524L735.297,443.493" style="fill:none;stroke:black;stroke-width:1.34px;"/>
        </g>
        <g transform="matrix(2.80387,0,0,2.80387,-1449.91,-875.332)">
            <path d="M738.091,428.949L736.927,428.575L737.555,427.576L738.406,424.397L741.807,419.59L741.055,419.59L734.469,418.908L727.882,415.125L726.317,415.191L710.471,405.931L711.645,402.41L712.232,399.214L714.71,393.411L717.644,383.89L712.949,380.369L703.429,398.888L696.386,397.388L696.125,396.736L692.865,392.758L688.639,387.672L688.639,386.066L683.742,389.494L681.973,389.307L680.321,390.542L677.599,390.743L675.379,391.338L673.743,391.644L673.465,393.569L671.254,394.69L670.012,394.494L667.873,394.406C667.873,394.406 666.959,393.462 667.142,395.131C667.325,396.801 667.186,397.763 667.186,397.763L666.325,399.977L664.773,401.582L657.686,411.148L659.62,411.952L659.096,413.943L656.87,415.994L654.287,422.634L653.236,424.634L652.622,426.782L653.217,429.002L654.116,430.876L654.838,437.027L654.273,438.369L653.601,440.796L653.399,443.494L653.304,447.088L653.439,449.564L651.426,451.425C651.426,451.425 649.025,452.333 649.365,454.092C649.704,455.852 649.691,458.764 649.691,458.764L649.233,461.001L649.873,473.256L650.976,474.414L650.428,476.808L651.622,477.81L651.47,481.684L655.278,481.589L653.839,488.056C653.839,488.056 653.137,489.563 654.088,495.245L672.09,497.67L679.105,500.508L684.324,501.812L685.908,498.581L686.891,496.252L687.276,494.649L690.566,486.615L691.913,485.439L692.319,484.414L692.981,483.58L697.917,480.802L701.55,475.503L702.896,472.426L704.05,468.43L705.588,463.537L705.823,460.225L707.939,456.272L707.896,454.798L708.9,454.776L710.225,453.857L713.9,453.879L713.9,450.545L715.909,447.447L717.768,445.203L719.563,443.216L721.4,440.887L723.601,438.43L724.456,438.216L725.824,438.665L729.435,440.524L735.297,443.493L735.364,443.127L736.031,440.123L736.298,437.485L736.732,434.647L737.133,431.909L738.091,428.949" style="fill:none;stroke:black;stroke-width:1.34px;"/>
        </g>
        <g transform="matrix(2.80387,0,0,2.80387,-1449.91,-875.332)">
            <path d="M688.639,386.066L689.555,381.591L694.07,381.174L695.746,379.535L699.259,380.312L704.246,382.149L706.32,376.57L713.231,371.281L712.664,365.22L715.505,361.022L716.046,352.681C722.844,342.532 724.38,344.314 724.38,344.314L729.787,337.26L729.423,330.378L733.576,325.353L744.737,321.622C744.737,321.622 758.675,327.937 762.451,336.633C766.227,345.329 776.748,352.217 776.748,352.217L773.203,357.026L768.318,363.13L763.992,370.932L761.811,373.335L761.995,373.926L757.78,380.804L755.044,385.13L753.159,388.42L751.827,389.899L750.866,393.301L750.755,396.296L750.496,400.835L749.905,404.172L748.352,408.498L745.801,412.824L741.77,418.296L741.807,419.59L741.055,419.59L734.469,418.908L727.882,415.125L726.317,415.191L710.471,405.931L711.645,402.41L712.232,399.214L714.71,393.411L717.644,383.89L712.949,380.369L703.429,398.888L696.386,397.388L696.125,396.736L692.865,392.758L688.639,387.672L688.639,386.066Z" style="fill:none;stroke:black;stroke-width:1.34px;"/>
        </g>
        <g transform="matrix(2.80387,0,0,2.80387,-1449.91,-875.332)">
            <path d="M745.437,653.151C730.262,661.344 751.315,668.501 749.489,670.508L749.897,677.291L744.422,676.964C744.422,676.964 745.321,671.57 743.605,668.465C741.889,665.36 737.402,667.446 737.402,667.446C737.402,667.446 726.448,661.556 705.768,655.879L706.159,653.746L706.327,652.364L706.695,652.264L706.628,650.457L706.829,649.151L706.829,646.373L706.896,644.8L707.498,643.461L707.431,641.821L707.398,640.348L707.264,639.679C707.264,639.679 707.063,639.478 706.829,639.277C706.594,639.076 706.092,638.976 705.724,638.808C705.356,638.641 704.753,638.139 704.753,638.139L704.72,637.67L704.318,636.867L703.348,635.997L702.678,635.93L695.816,639.277L692.168,639.31L689.457,637.704L688.218,635.562L688.453,632.449L689.992,630.675L691.8,628.867L692.268,627.495L693.942,627.562L695.716,627.495C695.716,627.495 697.088,627.528 698.126,627.495C699.164,627.462 699.398,627.395 699.398,627.395L700.603,626.022L701.406,625.252L702.042,623.88L702.243,622.474L702.009,620.734L701.205,618.223L700.402,617.788L698.327,617.387L697.222,616.818L696.452,616.182L696.586,614.642L697.39,612.734L698.963,611.548L703.85,614.307C703.85,614.307 705.289,614.24 706.025,614.14C706.762,614.039 706.962,614.14 706.962,614.14L708.368,614.14L709.339,615.546L710.109,615.445L711.615,615.981L712.686,616.416L713.054,615.613L712.753,614.776C712.753,614.776 712.284,614.207 712.117,613.872C711.95,613.537 711.682,613.37 711.314,612.868C710.946,612.366 711.079,612.198 711.013,611.864C710.946,611.529 710.611,610.469 710.611,610.469L710.075,609.253L709.573,608.416L708.469,608.115L707.398,607.814L706.762,607.379L706.025,606.542L705.958,605.638L705.891,604.801L707.498,602.727L711.488,600.162L712.237,597.457L713.282,596.493L715.397,596.386L716.682,595.529L716.656,594.351L718.503,594.404L718.45,592.262L718.932,590.548L719.199,589.317L719.601,588.219L720.297,587.228L721.154,585.996L721.556,585.193L721.77,584.497L721.957,584.122L723.859,584.176L724.314,584.604L724.957,584.524L725.198,583.801L726.108,583.72L727.152,585.032L727.447,585.568L728.384,584.952L729.08,584.845L730.794,584.899L731.088,584.39L732.454,584.47L732.267,583.265L733.847,582.596L735.266,581.98C735.266,581.98 735.775,581.98 736.283,581.819C736.792,581.658 737.328,581.498 737.328,581.498L738.104,581.23L738.961,581.096L739.229,580.909L739.416,579.811L741.371,577.803L744.665,582.14L745.843,583.104L746.512,583.613L747.637,583.827C747.637,583.827 748.36,583.961 748.574,584.068C748.788,584.176 749.592,584.47 749.592,584.47L750.904,585.273L751.841,585.648L752.001,585.862L752.858,585.862L753.421,586.425L754.411,587.201L755.268,587.549L755.991,588.085L756.741,588.594L757.384,589.424L757.866,589.906L757.866,592.369L758.535,593.146L758.83,594.11L761.882,594.003L762.364,594.351L763.409,594.592C763.409,594.592 763.355,594.672 763.783,594.779C764.212,594.886 764.694,595.127 764.694,595.127L765.31,595.315L765.685,596.091L766.086,596.547L766.836,597.029L767.077,597.484L766.274,597.832L763.917,598.555L762.953,599.439L761.588,600.269L760.784,600.751L760.651,601.956L760.463,602.25C760.463,602.25 760.142,602.598 760.222,602.946C760.302,603.294 760.329,603.937 760.329,603.937C760.329,603.937 759.794,604.419 759.794,604.714C759.794,605.008 759.579,605.865 759.579,605.865L759.017,606.936L758.749,607.793L758.455,608.998L758.428,610.176L758.08,611.274L757.946,611.917L757.33,613.202C757.33,613.202 757.169,614.541 757.089,614.862C757.009,615.184 756.902,616.281 756.768,616.576C756.634,616.87 756.366,617.781 756.366,617.781L756.018,618.879L755.215,622.279L754.599,625.038L754.144,626.376L753.019,629.831L752.43,631.732L751.573,635.025L751.064,636.9L750.1,640.595L749.672,642.469L748.52,645.308L747.878,647.022L747.396,649.512L746.566,651.118L745.437,653.151" style="fill:none;stroke:black;stroke-width:1.34px;"/>
        </g>
        <g transform="matrix(2.80387,0,0,2.80387,-1449.91,-875.332)">
            <path d="M745.437,653.151C749.462,650.985 756.055,648.715 766.241,646.483L766.646,642.074C766.646,642.074 758.697,634.491 760.872,629.606C760.872,629.606 763.813,626.018 772.211,631.248C772.211,631.248 779.897,632.335 780.441,628.026C780.985,623.716 780.525,620.662 780.525,620.662L784.5,616.604L784.04,607.399C784.04,607.399 788.144,606.974 794.192,595.288L794.682,590.303L797.891,588.583L797.639,586.366C797.639,586.366 792.368,586.45 792.702,584.232C793.037,582.015 792.828,579.337 792.828,579.337L796.01,563.133C796.01,563.133 805.162,563.879 808.104,545.727L808.594,531.416L810.062,528.481L811.397,525.982L810.062,525.089L809.701,524.822L788.904,524.152L784.887,529.508L780.246,536.247L779.398,539.638L779.13,545.038L779.398,548.252L780.335,553.964L782.165,562.934L787.253,569.673L787.208,572.574L782.53,588.195L778.96,598.192L776.55,600.512L770.614,601.628L766.999,602.253L764.366,602.699L762.759,602.654L761.108,602.297L760.528,602.119L760.463,602.25C760.463,602.25 760.142,602.598 760.222,602.946C760.302,603.294 760.329,603.937 760.329,603.937C760.329,603.937 759.794,604.419 759.794,604.714C759.794,605.008 759.579,605.865 759.579,605.865L759.017,606.936L758.749,607.793L758.455,608.998L758.428,610.176L758.08,611.274L757.946,611.917L757.33,613.202C757.33,613.202 757.169,614.541 757.089,614.862C757.009,615.184 756.902,616.281 756.768,616.576C756.634,616.87 756.366,617.781 756.366,617.781L756.018,618.879L755.215,622.279L754.599,625.038L754.144,626.376L753.019,629.831L752.43,631.732L751.573,635.025L751.064,636.9L750.1,640.595L749.672,642.469L748.52,645.308L747.878,647.022L747.396,649.512L746.566,651.118L745.437,653.151" style="fill:none;stroke:black;stroke-width:1.34px;"/>
        </g>
        <g transform="matrix(2.80387,0,0,2.80387,-1449.91,-875.332)">
            <path d="M788.904,524.152L786.678,524.138L785.874,523.167L784.293,521.947L783.295,521.171L781.659,520.145L779.191,518.12L780.522,514.377L781.437,511.77L782.546,508.997L783.85,505.336L785.514,500.955L786.761,497.461L786.512,496.13L786.096,494.688L784.155,491.083L783.351,489.613L782.241,488.254L780.605,485.453L780.494,481.931L781.909,480.046L783.129,478.16L783.877,476.108L784.46,473.612L785.014,471.255L785.098,468.316L786.068,464.932L787.427,461.577L788.904,460.024L788.904,459.053L789.257,458.915L789.174,458.166L793.195,458.138L797.161,456.669L801.431,453.285L804.759,450.069L806.95,446.963L810.194,443.219L813.094,437.415L822.425,428.708L825.398,422.429L834.291,429.421L835.765,429.285L843.756,432.464L845.224,432.464C845.438,433.663 845.474,435.391 843.485,440.297C837.985,453.869 834.091,457.215 834.091,457.215L855.91,471.434L857.299,471.189L876.421,480.75L866.369,494.642L864.817,494.969L865.062,493.253L858.525,493.008L856.645,495.051L853.54,495.051L852.559,496.93L847.738,497.502L841.609,503.386L838.177,503.55L838.422,506.001L830.332,512.784L824.611,513.519L818.156,523.162L811.945,524.715L811.334,525.937L811.329,525.937L810.062,525.089L809.701,524.822L788.904,524.152" style="fill:none;stroke:black;stroke-width:1.34px;"/>
        </g>
        <g transform="matrix(2.80387,0,0,2.80387,-1449.91,-875.332)">
            <path d="M784.025,444.939L783.145,444.03L780.039,442.551L777.894,441.59L775.01,440.554L771.091,439.186L763.622,436.302L758.261,434.749L752.197,432.901L747.834,431.791L745.542,431.348L736.927,428.575L737.555,427.576L738.406,424.397L741.807,419.59L741.77,418.296L745.801,412.824L748.352,408.498L749.905,404.172L750.496,400.835L750.755,396.296L750.866,393.301L751.827,389.899L753.159,388.42L755.044,385.13L757.78,380.804L761.995,373.926L761.811,373.335L763.992,370.932L768.318,363.13L772.598,357.026L773.203,357.026C805.245,361.659 803.821,374.599 803.821,374.599L801.567,373.611L793.294,381.977L792.832,387.107L794.218,391.128L795.42,396.12L792.185,396.674L789.55,395.704L789.55,397.83L792.046,406.103L794.542,408.552L796.391,411.926L798.424,414.33L800.689,417.75L802.168,420.708L801.983,424.96L797.176,430.182L792.601,434.481L788.21,438.04L785.576,440.397L784.651,443.586L784.025,444.939" style="fill:none;stroke:black;stroke-width:1.34px;"/>
        </g>
        <g transform="matrix(2.80387,0,0,2.80387,-1449.91,-875.332)">
            <path d="M547.203,676.857C547.203,676.857 567.837,665.109 569.88,665.518C571.923,665.927 585.713,663.067 596.642,658.47C607.572,653.873 657.01,645.321 688.682,651.805C720.354,658.289 737.402,667.446 737.402,667.446C737.402,667.446 741.889,665.36 743.605,668.465C745.321,671.57 744.422,676.964 744.422,676.964L749.897,677.291L749.489,670.508C751.799,667.969 717.494,657.165 766.241,646.483L766.646,642.074C766.646,642.074 758.697,634.491 760.872,629.606C760.872,629.606 763.813,626.018 772.211,631.248C772.211,631.248 779.897,632.335 780.441,628.026C780.985,623.716 780.525,620.662 780.525,620.662L784.5,616.604L784.04,607.399C784.04,607.399 788.144,606.974 794.192,595.288L794.682,590.303L797.891,588.583L797.639,586.366C797.639,586.366 792.368,586.45 792.702,584.232C793.037,582.015 792.828,579.337 792.828,579.337L796.01,563.133C796.01,563.133 805.162,563.879 808.104,545.727L808.594,531.416L811.945,524.715L818.156,523.162L824.611,513.519L830.332,512.784L838.422,506.001L838.177,503.55L841.609,503.386L847.738,497.502L852.559,496.93L853.54,495.051L856.645,495.051L858.525,493.008L865.062,493.253L864.817,494.969L866.369,494.642L876.421,480.75L857.299,471.189L855.91,471.434L834.091,457.215C834.091,457.215 837.985,453.869 843.485,440.297C848.986,426.726 839.002,437.476 852.579,416.457L853.665,412.913L835.509,385.804L803.821,374.599C803.821,374.599 805.245,361.659 773.203,357.026L776.748,352.217C776.748,352.217 766.227,345.329 762.451,336.633C758.675,327.937 744.737,321.622 744.737,321.622L733.576,325.353L729.423,330.378L729.787,337.26L724.38,344.314C724.38,344.314 722.844,342.532 716.046,352.681L715.505,361.022L712.664,365.22L713.231,371.281L706.32,376.57L704.246,382.149L699.259,380.312L695.746,379.535L694.07,381.174L689.555,381.591L688.639,386.066L683.742,389.494L681.973,389.307L680.321,390.542L677.599,390.743L675.379,391.338L673.743,391.644L673.465,393.569L671.254,394.69L670.012,394.494L667.873,394.406C667.873,394.406 666.959,393.462 667.142,395.131C667.325,396.801 667.186,397.763 667.186,397.763L666.325,399.977L664.773,401.582L657.686,411.148L659.62,411.952L659.096,413.943L656.87,415.994L654.287,422.634L653.236,424.634L652.622,426.782L653.217,429.002L654.116,430.876L654.838,437.027L654.273,438.369L653.601,440.796L653.399,443.494L653.304,447.088L653.439,449.564L651.426,451.425C651.426,451.425 649.025,452.333 649.365,454.092C649.704,455.852 649.691,458.764 649.691,458.764L649.233,461.001L649.873,473.256L650.976,474.414L650.428,476.808L651.622,477.81L651.47,481.684L655.278,481.589L653.839,488.056C653.839,488.056 651.489,493.101 661.213,519.524L661.973,526.801L653.572,537.38L654.114,543.845C654.114,543.845 654.883,547.208 655.09,548.474C655.297,549.74 656.355,553.687 656.355,553.687L654.576,558.394L650.598,561.31L647.94,559.775L650.479,557.905L651.908,556.333L649.891,554.229L647.316,553.994L645.349,553.067L644.836,550.164C644.836,550.164 645.985,548.534 644.875,548.832C643.765,549.129 641.208,549.946 641.208,549.946L639.689,551.676L637.295,551.127L636.676,549.31L636.023,547.37L634.138,545.76L631.891,544.776L630.444,545.296L630.191,546.818L628.729,548.267L626.59,548.179L624.337,548.651L622.291,550.389L619.219,553.723L614.74,556.246L612.516,560.278L609.754,561.812L606.629,561.988L603.387,568.144L601.103,570.475L597.113,576.303L595.481,580.573L592.649,585.298L590.509,590.63L586.682,595.093L581.645,599.482L576.85,599.842L568.122,598.347L564.193,600.457L563.084,608.157L562.877,614.293L562.732,616.712L557.838,616.701L556.129,618.216L553.629,618.754L550.973,619.201L548.359,620.298L546.124,621.823L545.385,626.271L543.667,629.016L543.464,631.101C543.464,631.101 542.788,633.312 543.042,634.26C543.295,635.207 543.14,641.255 543.14,641.255L543.656,646.024L545.115,651.47L544.139,653.508L544.242,686.729L544.48,687.934L547.488,685.267L551.354,682.962L556.468,680.577L560.544,677.793L565.867,674.928L568.411,671.793L569.604,669.612L564.313,673.229L559.73,675.388L555.922,677.593L553.544,678.822L550.523,679.547L547.428,679.361L547.063,677.682L547.203,676.857Z" style="fill:none;stroke:black;stroke-width:1.34px;"/>
        </g>
    </g>
</svg>
