<?xml version="1.0" encoding="UTF-8" standalone="no"?>
<!DOCTYPE svg PUBLIC "-//W3C//DTD SVG 1.1//EN" "http://www.w3.org/Graphics/SVG/1.1/DTD/svg11.dtd">
<svg width="100%" height="100%" viewBox="0 0 778 1042" version="1.1" xmlns="http://www.w3.org/2000/svg" xmlns:xlink="http://www.w3.org/1999/xlink" xml:space="preserve" xmlns:serif="http://www.serif.com/" style="fill-rule:evenodd;clip-rule:evenodd;stroke-linecap:round;stroke-linejoin:round;stroke-miterlimit:1.5;">
    <g transform="matrix(1,0,0,1,-130.812,-9.04514)">
        <path d="M870.129,309.444L870.691,323.776L872.656,332.029L877.766,344.999L883.072,352.27L888.771,362.686L898.596,372.315L902.33,382.73L905.868,389.608L905.671,394.718L889.164,395.307L880.321,397.272L880.714,412.011L877.766,410.635L877.569,420.461L881.5,420.854L880.714,437.362L875.211,437.165L873.639,453.279L871.87,453.672L872.263,460.747L866.681,461.533L864.206,470.376L861.062,483.182L863.224,503.784L869.119,521.077L872.263,528.152L872.067,549.572L871.674,577.084L878.945,581.211L878.355,594.77C878.355,594.77 874.818,598.701 875.015,600.469C875.211,602.238 868.923,616.19 868.923,616.19L852.415,636.825L839.052,644.882L804.859,641.541L779.312,637.218L759.267,632.501L742.563,635.645L728.807,636.825L716.82,635.842L695.203,635.842L672.014,634.073L695.982,607.868L707.035,587.736L719.666,564.644L735.653,534.644L747.298,506.025L750.389,488.262L746.706,460.827L746.509,433.59L752.035,415.827L753.219,406.748L750.389,399.445L750.389,386.813L745.917,373.589L748.088,363.523L752.233,357.602L752.035,352.076L755.391,345.76L756.772,335.299L765.851,334.51L773.943,327.405L774.93,318.128L786.378,317.931L792.299,315.168L800.194,319.312L800.983,329.773L806.115,336.681L804.93,344.576L800.983,354.05L795.851,360.168L791.707,364.905L788.941,369.642L783.614,370.826L779.667,371.418L774.338,379.708L793.088,386.813L806.707,386.616L818.746,378.129L828.023,363.721L837.299,354.642L843.22,344.576L851.707,331.352L857.431,321.484L864.931,313.983L870.063,309.444L870.129,309.444Z" style="fill:none;stroke:black;stroke-width:3.93px;"/>
        <path d="M593.408,705.998L602.448,709.339L619.348,711.107L624.261,707.177L639,701.675L654.721,693.421L673.587,687.132L671.032,681.63L654.525,680.844L652.363,676.324L657.865,664.337L661.796,655.69L660.027,643.113L672.014,634.073L695.982,607.868L707.035,587.736L719.666,564.644L735.653,534.644L747.298,506.025L750.389,488.262L746.706,460.827L746.509,433.59L752.035,415.827L753.219,406.748L750.389,399.445L750.389,386.813L745.917,373.589L748.088,363.523L752.233,357.602L752.035,352.076L755.391,345.76L756.772,335.299L765.851,334.51L773.943,327.405L774.93,318.128L786.378,317.931L792.299,315.168L800.194,319.312L800.983,329.773L806.115,336.681L804.93,344.576L800.983,354.05L795.851,360.168L791.707,364.905L788.941,369.642L783.614,370.826L779.667,371.418L774.338,379.708L793.088,386.813L806.707,386.616L818.746,378.129L828.023,363.721L837.299,354.642L843.22,344.576L851.707,331.352L857.431,321.484L864.931,313.983L870.063,309.444L869.905,307.465L886.02,291.744L898.793,281.328L906.261,274.843L906.654,267.572L905.278,265.607L900.758,261.677L895.452,258.926L891.718,258.729L887.199,257.354L877.373,257.943L856.346,262.07L849.271,266.197L818.615,267.572L813.505,264.821L813.112,259.712L806.015,259.712L798.342,265.101L792.778,271.624L784.721,275.269L764.193,270.856L753.834,263.374L745.512,257.427L737.719,250.137L735.608,252.056L732.155,259.712L725.633,266.06L710.861,279.489L700.214,284.405L683.235,298.866L675.967,308.716L670.686,317.366L667.772,324.195L665.496,331.206L662.946,337.579L662.218,342.587L659.668,349.052L659.942,354.424L655.662,363.529L656.482,370.176L655.753,374.364L654.661,374.91L654.934,378.643L652.566,386.019L651.929,391.482L647.741,391.664L644.007,404.866L640.274,419.617L643.188,420.254L639.455,433.274L637.725,441.378L639.455,442.197L637.27,455.764L635.175,456.219L635.084,457.585L632.907,457.585L632.907,457.639L632.956,460.268L631.755,467.07L630.075,477.393L629.675,487.957L627.274,498.2L625.993,506.923L625.433,522.768L624.313,524.529L623.913,530.851L622.792,539.093L620.952,553.898L619.511,569.743L616.224,589.172L611.422,628.485L609.722,628.284L605.52,658.494L605.42,665.997L606.821,666.397L606.621,670.098L601.499,688.616L595.269,699.407L593.408,705.998Z" style="fill:none;stroke:black;stroke-width:3.93px;"/>
        <path d="M580.635,190.145L576.508,182.481L574.15,176.782L592.229,174.621L594.194,161.454L596.749,143.768L595.963,130.601L596.16,118.221L608.54,117.238L611.684,100.927L615.025,88.154L619.152,76.953L625.244,76.953L634.283,82.848L638.41,84.42L639.703,82.784L651.601,46.705L659.662,45.553L665.035,11.777L672.711,11.009L681.923,16.767L696.892,24.443L734.89,51.694L787.857,87.389L797.588,88.154L805.645,87.564L819.597,97.39L818.222,108.002L817.436,116.845L816.257,127.26L813.505,129.815L814.095,138.658L800.142,153.594L791.889,163.419L788.548,178.158L802.697,204.294L810.558,217.068L819.794,228.662L826.279,240.65L819.401,255.349L813.112,259.712L806.015,259.712L798.342,265.101L792.778,271.624L784.721,275.269L764.193,270.856L753.834,263.374L745.512,257.427L737.719,250.137L735.608,252.056L732.155,259.712L725.633,266.06L710.861,279.489L700.214,284.405L683.235,298.866L675.967,308.716L673.326,306.349L673.053,303.162L671.323,300.885L668.865,299.793L666.406,297.881L670.412,292.873L666.133,289.231L661.489,285.589L662.218,284.405L665.739,280.958L665.912,278.541L674.545,275.692L676.703,273.792L681.02,275.087L684.646,269.994L687.581,269.735L694.228,264.382L695.092,258.08L681.193,253.764L674.977,252.814L669.106,251.519L665.912,251.174L667.466,242.973L659.006,242.023L653.567,241.419L637.941,240.21L626.373,238.052L614.028,234.771L603.064,230.455L595.812,227.26L592.704,221.304L589.769,211.635L587.697,204.124L585.711,195.405L583.38,190.145L582.69,188.93L580.359,190.145L580.635,190.145Z" style="fill:none;stroke:black;stroke-width:3.93px;"/>
        <path d="M580.359,190.145L582.69,188.93L583.38,190.145L585.711,195.405L587.697,204.124L589.769,211.635L592.704,221.304L595.812,227.26L603.064,230.455L614.028,234.771L626.373,238.052L637.941,240.21L653.567,241.419L659.006,242.023L667.466,242.973L665.912,251.174L669.106,251.519L674.977,252.814L681.193,253.764L695.092,258.08L694.228,264.382L687.581,269.735L684.646,269.994L681.02,275.087L676.703,273.792L674.545,275.692L665.912,278.541L665.739,280.958L662.218,284.405L655.389,281.036L649.288,277.758L642.892,274.298L637.429,270.998L631.852,269.404L625.365,270.656L616.715,271.681L616.146,265.762L615.804,263.486L610.796,265.99L604.423,269.518L595.887,273.957L588.716,277.371L581.432,280.786L574.262,285.338L562.994,289.891L556.848,291.029L548.312,288.525L533.676,286.09L533.403,289.55L531.946,296.652L530.125,302.934L528.304,312.677L527.484,324.604L526.938,336.623L524.734,349.006L521.566,354.287L520.109,354.833L519.927,357.11L518.106,357.201L516.194,358.476L514.009,358.931L512.37,364.849L510.276,364.485L507.817,373.499L505.905,376.595L501.99,374.592L498.439,373.317L495.98,372.862L490.791,373.317L486.511,376.231L483.051,382.149L482.778,388.887L487.057,398.083L486.056,399.176L485.783,402.18L484.053,403.91L486.329,405.367L486.329,409.647L481.685,415.292L479.955,417.568L471.943,425.854L462.917,428.46L463.629,433.195L459.93,442.584L459.361,445.003L457.511,449.556L447.668,458.484L433.331,458.484C433.331,458.484 429.39,459.49 428.551,459.658C427.713,459.826 422.598,461.838 422.598,461.838L410.608,463.85L397.863,464.94L382.184,467.288L350.239,466.701L332.379,451.189L320.473,443.979L308.567,437.69L300.769,433.665L288.417,427.929L289.989,419.086L301.387,416.531L317.697,396.683L330.471,392.949L344.62,380.176L345.013,373.101L354.839,371.922L364.665,360.131L377.635,358.166L391.784,352.074L406.129,354.432L413.99,340.283L423.423,328.689L430.301,323.579L437.572,300.783L437.375,293.709L446.611,292.53L455.258,296.067L477.857,276.219L479.429,266.197L488.666,255.349L490.238,242.615L494.758,232.593L499.277,220.016L505.173,208.421L516.767,205.867L516.374,216.478L526.79,212.352L537.794,209.797L542.904,209.993L540,199.578L550.371,197.613C550.371,197.613 560.197,194.076 561.966,193.486C563.734,192.897 575.525,191.717 575.525,191.717L580.359,190.145Z" style="fill:none;stroke:black;stroke-width:3.93px;"/>
        <path d="M594.125,704.329L576.705,744.908L575.918,773.599L573.364,778.119C573.364,778.119 572.381,781.067 570.219,782.442C568.058,783.818 563.931,785.783 563.931,785.783L557.446,785.98L558.822,801.111L560.001,813.099L561.573,822.728L564.521,829.802C564.521,829.802 567.861,836.877 568.647,838.646C569.433,840.414 571.792,846.113 571.792,846.113L571.595,851.026L569.04,858.887L571.006,872.643L599.893,897.207L622.493,915.68L644.109,917.448L647.647,920.396L648.629,925.702L644.109,927.864L639.982,925.898L639.982,945.353L643.716,952.035L649.022,950.07L652.559,951.249L653.738,962.45L654.918,968.149L665.136,971.883L668.674,982.495L668.674,987.408L654.918,990.355L647.647,994.875L638.607,1004.31L629.764,1006.86L625.047,1019.83L626.226,1037.52L628.191,1043.35L622.886,1048.52L614.632,1043.35L604.413,1034.18L601.662,1026.12L599.697,1013.74L590.657,1010.99L577.294,1004.9L565.7,1007.85L551.747,1006.67L540,1005.09L535.829,1008.44L526.397,1006.47L513.623,1009.02L507.924,1008.04L497.312,1001.36L488.862,996.054L481.788,992.517L478.84,995.072L479.036,1001.75L479.036,1006.08L471.176,1005.88L469.014,1012.96L462.333,1013.15L459.385,1008.83L444.45,1000.97L434.427,1002.54L427.942,1001.16L421.457,988.587L407.112,980.923L393.159,980.923L379.403,973.848L375.473,964.022L370.757,957.341L361.717,959.503L351.105,952.428L345.21,948.301L343.441,956.751L343.834,962.843L336.366,964.808L328.309,967.756L324.772,967.56L323.003,957.144L325.165,950.659L325.558,943.192L318.09,939.065L305.906,931.99L295.884,931.008L286.845,931.794L285.469,920.789L283.7,914.304L281.735,910.374L268.765,910.767L261.887,903.889L249.703,906.64L231.624,911.749L220.029,914.501L223.567,921.379L204.505,919.02L198.02,912.732L187.015,907.819L181.512,903.889L170.901,886.792L170.114,871.857L168.739,860.262L160.092,847.489L168.739,841.986L167.756,827.444L156.555,822.728L143.388,813.885L144.174,806.417L148.301,798.753L147.122,791.679L145.157,792.858C145.157,792.858 141.62,782.639 141.816,780.281C142.013,777.922 142.995,767.704 142.995,767.704L146.533,763.184L147.319,748.445L147.319,744.711L158.324,744.711L154.59,724.863L138.869,715.824L132.777,709.142L135.331,699.316L145.747,691.849L163.629,686.936L177.582,682.023L186.622,678.682L192.517,676.324L189.962,666.695L183.674,657.655L181.119,651.563L181.905,644.489L186.622,640.558L193.107,640.165L200.181,642.916L209.221,644.685L219.243,644.292L223.174,639.772L222.388,624.641L232.017,615.601L229.462,597.128L242.629,586.91L253.633,566.669L252.454,557.236L258.35,556.843L259.136,550.161L251.275,548.196L246.755,541.711L250.293,534.047L253.044,520.684L255.206,507.321L256.188,500.836L274.661,487.276L279.573,476.075C279.573,476.075 282.914,464.874 283.504,463.105C284.093,461.336 284.093,456.817 284.093,456.817L282.128,431.859L288.417,427.929L300.769,433.665L308.567,437.69L320.473,443.979L332.379,451.189L350.239,466.701L382.184,467.288L397.863,464.94L410.608,463.85L422.598,461.838C422.598,461.838 427.713,459.826 428.551,459.658C429.39,459.49 433.331,458.484 433.331,458.484L447.668,458.484L439.032,468.378L437.691,474.499L428.384,488.082L427.629,499.653L416.561,519.273L418.574,525.813L417.484,531.263C417.484,531.263 414.717,536.545 414.214,537.132C413.71,537.719 406.584,544.259 406.584,544.259L395.767,545.013L397.025,551.721L397.025,558.932L395.348,562.37L387.215,569.748L384.532,575.701L384.532,581.319L383.358,581.654L383.19,588.362L380.843,593.309L377.908,598.172L378.076,604.796L371.871,612.761L371.62,620.391L373.129,626.093L369.44,630.621L373.296,634.813L377.321,642.443L378.579,646.216L383.023,646.3L387.383,648.061L388.221,652.505L399.96,654.265L407.59,655.858L412.872,659.045L417.316,661.392L416.226,666.004L425.533,669.19L433.079,675.311L442.47,684.031L445.74,689.229L451.106,689.649L454.795,690.822L460.832,692.248L464.102,692.835L489.005,692.667L510.223,691.027L525.813,690.634L540,688.538L594.125,704.329Z" style="fill:none;stroke:black;stroke-width:3.93px;"/>
        <path d="M632.907,457.585L635.084,457.585L635.175,456.219L637.27,455.764L639.455,442.197L637.725,441.378L639.455,433.274L643.188,420.254L640.274,419.617L644.007,404.866L647.741,391.664L651.929,391.482L652.566,386.019L654.934,378.643L654.661,374.91L655.753,374.364L656.482,370.176L655.662,363.529L659.942,354.424L659.668,349.052L662.218,342.587L662.946,337.579L665.496,331.206L667.772,324.195L670.686,317.366L675.967,308.716L673.326,306.349L673.053,303.162L671.323,300.885L668.865,299.793L666.406,297.881L670.412,292.873L666.133,289.231L661.489,285.589L662.218,284.405L655.389,281.036L649.288,277.758L642.892,274.298L637.429,270.998L631.852,269.404L625.365,270.656L616.715,271.681L616.146,265.762L615.804,263.486L610.796,265.99L604.423,269.518L595.887,273.957L588.716,277.371L581.432,280.786L574.262,285.338L562.994,289.891L556.848,291.029L548.312,288.525L533.676,286.09L533.403,289.55L531.946,296.652L530.125,302.934L528.304,312.677L527.484,324.604L526.938,336.623L524.734,349.006L521.566,354.287L520.109,354.833L519.927,357.11L518.106,357.201L516.194,358.476L514.009,358.931L512.37,364.849L510.276,364.485L507.817,373.499L505.905,376.595L501.99,374.592L498.439,373.317L495.98,372.862L490.791,373.317L486.511,376.231L483.051,382.149L482.778,388.887L487.057,398.083L486.056,399.176L485.783,402.18L484.053,403.91L486.329,405.367L486.329,409.647L481.685,415.292L479.955,417.568L471.943,425.854L462.917,428.46L463.629,433.195L459.93,442.584L459.361,445.003L457.511,449.556L447.668,458.484L439.032,468.378L437.691,474.499L428.384,488.082L427.629,499.653L416.561,519.273L421.154,517.679L425.968,516.091L429.861,516.245L434.163,517.064L440.923,518.14L448.401,518.089L460.078,518.345L475.597,516.604L477.39,510.97L481.782,504.568L483.28,499.446L483.997,494.683L484.458,488.178L484.099,483.927L480.975,478.55L487.735,468.818L488.965,463.85L491.013,456.885L494.496,448.485L498.235,439.42L499.31,438.652L501.41,440.035L504.739,442.135L509.81,443.927L512.985,447.615L515.29,451.61L518.107,455.809L524.458,457.295L529.272,455.707L538.03,454.119L549.093,454.375L555.597,449.151L557.134,447.512L558.722,441.315L559.592,435.733L562.563,431.635L565.687,429.587L570.04,428.46L574.548,428.665L580.13,429.484L583.92,430.048L586.686,430.867L593.293,433.889L595.905,435.937L600.566,444.132L607.582,446.334L606.097,448.127L621.729,458.721L625.993,461.388L626.154,460.188L626.394,457.067L625.753,456.347L626.394,454.586L628.474,454.266L630.715,455.706L632.876,455.946L632.907,457.639L632.907,457.585Z" style="fill:none;stroke:black;stroke-width:3.93px;"/>
        <path d="M594.125,704.329L596.185,705.389L601.499,688.616L606.621,670.098L606.821,666.397L605.42,665.997L605.52,658.494L609.722,628.284L611.422,628.485L616.224,589.172L619.511,569.743L620.952,553.898L622.792,539.093L623.913,530.851L624.313,524.529L625.433,522.768L625.993,506.923L627.274,498.2L629.675,487.957L630.075,477.393L631.755,467.07L632.956,460.268L632.876,455.946L630.715,455.706L628.474,454.266L626.394,454.586L625.753,456.347L626.394,457.067L626.154,460.188L625.993,461.388L621.729,458.721L606.097,448.127L607.582,446.334L600.566,444.132L595.905,435.937L593.293,433.889L586.686,430.867L583.92,430.048L580.13,429.484L574.548,428.665L570.04,428.46L565.687,429.587L562.563,431.635L559.592,435.733L558.722,441.315L557.134,447.512L555.597,449.151L549.093,454.375L538.03,454.119L529.272,455.707L524.458,457.295L518.107,455.809L515.29,451.61L512.985,447.615L509.81,443.927L504.739,442.135L501.41,440.035L499.31,438.652L498.235,439.42L494.496,448.485L491.013,456.885L488.965,463.85L487.735,468.818L480.975,478.55L484.099,483.927L484.458,488.178L483.997,494.683L483.28,499.446L481.782,504.568L477.39,510.97L475.597,516.604L460.078,518.345L448.401,518.089L440.923,518.14L434.163,517.064L429.861,516.245L425.968,516.091L421.154,517.679L416.561,519.273L418.574,525.813L417.484,531.263C417.484,531.263 414.717,536.545 414.214,537.132C413.71,537.719 406.584,544.259 406.584,544.259L395.767,545.013L397.025,551.721L397.025,558.932L395.348,562.37L387.215,569.748L384.532,575.701L384.532,581.319L383.358,581.654L383.19,588.362L380.843,593.309L377.908,598.172L378.076,604.796L371.871,612.761L371.62,620.391L373.129,626.093L369.44,630.621L373.296,634.813L377.321,642.443L378.579,646.216L383.023,646.3L387.383,648.061L388.221,652.505L399.96,654.265L407.59,655.858L412.872,659.045L417.316,661.392L416.226,666.004L425.533,669.19L433.079,675.311L442.47,684.031L445.74,689.229L451.106,689.649L454.795,690.822L460.832,692.248L464.102,692.835L489.005,692.667L510.223,691.027L525.813,690.634L540,688.538L594.125,704.329Z" style="fill:none;stroke:black;stroke-width:3.93px;"/>
    </g>
</svg>
